<?xml version="1.0" encoding="UTF-8" standalone="no"?>
<!-- Created with Inkscape (http://www.inkscape.org/) -->

<svg
   version="1.1"
   id="svg1"
   width="1044"
   height="862"
   viewBox="0 0 1044 862"
   sodipodi:docname="cost.svg"
   inkscape:version="1.4 (e7c3feb100, 2024-10-09)"
   xmlns:inkscape="http://www.inkscape.org/namespaces/inkscape"
   xmlns:sodipodi="http://sodipodi.sourceforge.net/DTD/sodipodi-0.dtd"
   xmlns:xlink="http://www.w3.org/1999/xlink"
   xmlns="http://www.w3.org/2000/svg"
   xmlns:svg="http://www.w3.org/2000/svg">
  <defs
     id="defs1" />
  <sodipodi:namedview
     id="namedview1"
     pagecolor="#ffffff"
     bordercolor="#666666"
     borderopacity="1.0"
     inkscape:showpageshadow="2"
     inkscape:pageopacity="0.0"
     inkscape:pagecheckerboard="0"
     inkscape:deskcolor="#d1d1d1"
     inkscape:zoom="0.85976186"
     inkscape:cx="851.98011"
     inkscape:cy="691.47055"
     inkscape:current-layer="g1" />
  <g
     inkscape:groupmode="layer"
     inkscape:label="Image"
     id="g1">
    <image
       width="1044"
       height="862"
       preserveAspectRatio="none"
       style="image-rendering:optimizeQuality"
       xlink:href="cost.jpg"
       id="image1" />
    <text
       xml:space="preserve"
       style="font-style:normal;font-variant:normal;font-weight:bold;font-stretch:normal;font-size:74.6667px;font-family:'TeX Gyre Cursor';-inkscape-font-specification:'TeX Gyre Cursor Bold';fill:#ffffff;stroke:#000000;stroke-width:2;stroke-linecap:butt;stroke-linejoin:miter;stroke-dasharray:none;stroke-opacity:1;stop-color:#000000"
       x="59.000462"
       y="113.46246"
       id="text1"><tspan
         sodipodi:role="line"
         x="59.000462"
         y="113.46246"
         id="tspan2">WHAT WILL</tspan><tspan
         sodipodi:role="line"
         x="59.000462"
         y="206.79584"
         id="tspan3">IT COST?</tspan></text>
    <text
       xml:space="preserve"
       style="font-style:normal;font-variant:normal;font-weight:bold;font-stretch:normal;font-size:74.6667px;font-family:'TeX Gyre Cursor';-inkscape-font-specification:'TeX Gyre Cursor Bold';fill:#ffffff;stroke:#000000;stroke-width:2;stroke-linecap:butt;stroke-linejoin:miter;stroke-dasharray:none;stroke-opacity:1;stop-color:#000000"
       x="581.74664"
       y="555.5307"
       id="text1-1"><tspan
         sodipodi:role="line"
         x="581.74664"
         y="555.5307"
         id="tspan4">EVERYTHING</tspan></text>
    <path
       id="path5"
       style="fill-rule:evenodd;stroke-linecap:round;fill:#ffffff;stroke:#000000;stroke-width:2;stroke-dasharray:none"
       d="M 1006.9062 447.26562 C 943.3686 461.57381 843.89021 487.02068 773.30273 520.4043 C 748.30881 507.77057 723.09707 495.07508 696.82031 484.0957 C 696.81001 484.0907 696.79926 484.08868 696.78906 484.08398 C 680.82611 476.77619 664.54092 474.86659 648.70312 474.83789 C 643.42047 474.82789 638.18729 475.02663 633.0332 475.30469 C 612.41685 476.41693 592.75596 478.67911 574.83594 475.82422 A 10 10 0 0 0 563.38672 484.12695 A 10 10 0 0 0 571.68945 495.57617 C 593.32182 499.02248 614.39909 496.33886 634.11133 495.27539 C 653.82357 494.21192 671.86943 494.66094 688.49023 502.27734 L 688.64648 502.34961 L 688.80469 502.41602 C 709.86522 511.20192 730.49668 521.30964 751.16797 531.70703 C 745.08541 535.07303 739.2158 538.48302 733.85547 541.98633 L 733.47852 542.23242 L 733.12695 542.50977 C 698.95368 569.50403 644.62997 594.65751 601.40039 600.60156 A 10 10 0 0 0 592.85547 611.87109 A 10 10 0 0 0 604.125 620.41602 C 652.19511 613.80639 707.49142 588.01472 744.87305 558.68164 C 753.141 553.28325 762.72404 547.99213 773.16797 542.81445 C 800.97241 556.84648 829.14541 570.75326 858.82227 582.07031 C 867.07094 587.39728 877.39104 589.59351 890.0332 591.84375 C 903.59351 594.25741 919.38719 596.07665 935.0293 597.91797 C 950.6714 599.75929 966.16275 601.62456 978.66602 603.9668 C 991.16928 606.30904 1000.95 609.99417 1002.8809 611.5293 A 10 10 0 0 0 1016.9316 609.92383 A 10 10 0 0 0 1015.3281 595.87305 C 1006.9015 589.17357 995.88303 586.84382 982.34961 584.30859 C 968.81618 581.77337 953.03378 579.89889 937.36719 578.05469 C 921.70059 576.21049 906.15041 574.39744 893.53711 572.15234 C 880.92381 569.90724 870.91533 566.41842 868.79492 564.86328 L 867.70117 564.0625 L 866.43359 563.58008 C 842.6909 554.55503 819.61683 543.56638 796.5625 532.07812 C 862.9191 503.60637 952.94251 479.91916 1011.3008 466.77734 A 10 10 0 0 0 1018.8594 454.82422 A 10 10 0 0 0 1006.9062 447.26562 z " />
  </g>
</svg>
